External Loads File
version=1
nRows=62
nColumns=13
Range=5.000000e-03-10 seconds
endheader
time 	forceRightX 	forceRightY 	forceRightZ 	pointRightX 	pointRightY 	pointRightZ 	forceLeftX 	forceLeftY 	forceLeftZ 	pointLeftX 	pointLeftY 	pointLeftZ 		
0.005000 48.725146 -191.397100 -0.000000 0.000000 0.000000 0.000000 -403.594507 671.490051 -0.000000 0.464623 0.325959 -0.361732
0.010000 56.006715 -159.399752 -0.000000 0.000000 0.000000 0.000000 -462.364426 670.176404 -0.000000 0.465420 0.314315 -0.361645
0.015000 63.476077 -128.515544 -0.000000 0.000000 0.000000 0.000000 -523.285441 669.239490 -0.000000 0.465760 0.302860 -0.361436
0.020000 70.662904 -99.556454 -0.000000 0.000000 0.000000 0.000000 -588.300724 665.718262 -0.000000 0.465225 0.293388 -0.361331
0.025000 76.453855 -73.666981 -0.000000 0.000000 0.000000 0.000000 -654.583055 660.717598 -0.000000 0.463031 0.282596 -0.361223
0.030000 80.505906 -51.899411 -0.000000 0.000000 0.000000 0.000000 -720.008054 656.054260 -0.000000 0.462359 0.270387 -0.359585
0.035000 83.316231 -34.289861 -0.000000 0.000000 0.000000 0.000000 -789.816126 645.893792 -0.000000 0.459669 0.259253 -0.359045
0.040000 84.817589 -21.499132 -0.000000 0.000000 0.000000 0.000000 -862.402039 631.261920 -0.000000 0.456242 0.248250 -0.358716
0.045000 85.256332 -13.754338 -0.000000 0.000000 0.000000 0.000000 -937.575741 611.749400 -0.000000 0.452181 0.237568 -0.358446
0.050000 84.921212 -11.060224 -0.000000 0.000000 0.000000 0.000000 -1014.122888 588.244519 -0.000000 0.447488 0.226357 -0.358267
0.055000 84.147354 -12.759474 -0.000000 0.000000 0.000000 0.000000 -1092.707450 557.855035 -0.000000 0.442143 0.216198 -0.358215
0.060000 85.173646 2.273950 -0.000000 0.201053 0.000000 -0.103852 -1262.095527 225.149996 -0.000000 0.436243 0.206294 -0.358174
0.065000 86.529176 -4.701686 -0.000000 0.208152 0.000000 -0.104650 -1328.423091 145.954443 -0.000000 0.430037 0.196881 -0.357648
0.070000 89.060627 -13.141424 -0.000000 0.215051 0.000000 -0.104866 -1386.949118 58.316998 -0.000000 0.423036 0.187915 -0.357644
0.075000 92.880891 -21.415607 -0.000000 0.223970 0.000000 -0.108759 -1434.258194 -45.197383 -0.000000 0.415567 0.179614 -0.357516
0.080000 97.670294 -29.254320 -0.000000 0.231515 0.000000 -0.110984 -1466.325240 -152.191752 -0.000000 0.407610 0.171954 -0.357361
0.085000 103.165050 -35.303746 -0.000000 0.240024 0.000000 -0.111455 -1478.884109 -269.561486 -0.000000 0.399287 0.164856 -0.357260
0.090000 108.875351 -38.998458 -0.000000 0.249414 0.000000 -0.110120 -1467.369371 -395.270022 -0.000000 0.390743 0.158172 -0.357180
0.095000 -87.929457 -83.225351 -0.000000 0.258507 0.450690 -0.110699 185.569665 1509.954721 -0.000000 0.381989 0.152019 -0.357102
0.100000 -98.801005 -76.335174 -0.000000 0.267525 0.456204 -0.111238 220.394380 1490.190905 -0.000000 0.373109 0.146476 -0.357024
0.105000 -107.556557 -67.209836 -0.000000 0.277054 0.461311 -0.111203 253.860778 1451.717215 -0.000000 0.364099 0.141628 -0.357002
0.110000 -114.018472 -56.034020 -0.000000 0.286730 0.465067 -0.111342 281.732787 1394.767743 -0.000000 0.355060 0.137275 -0.357147
0.115000 -118.229437 -42.734068 -0.000000 0.296498 0.469393 -0.111421 303.986490 1319.787812 -0.000000 0.346004 0.133646 -0.357261
0.120000 -120.091090 -27.540886 -0.000000 0.306368 0.472288 -0.111696 317.546888 1228.680374 -0.000000 0.337089 0.130786 -0.357166
0.125000 -119.592845 -10.273417 -0.000000 0.316815 0.473898 -0.112462 324.624379 1122.888928 -0.000000 0.328207 0.128635 -0.357106
0.130000 -116.554229 8.524241 -0.000000 0.326748 0.475908 -0.112946 321.361267 1006.291383 -0.000000 0.319475 0.127104 -0.357099
0.135000 -110.918517 28.758934 -0.000000 0.336506 0.477260 -0.113233 309.660161 881.923457 -0.000000 0.310827 0.126367 -0.357069
0.140000 -102.746579 50.107153 -0.000000 0.345459 0.477922 -0.112977 289.746948 753.786433 -0.000000 0.302138 0.126220 -0.357323
0.145000 -92.129141 72.735760 -0.000000 0.354360 0.478417 -0.112523 264.931265 624.948766 -0.000000 0.293599 0.126919 -0.357445
0.150000 -79.237953 96.932430 -0.000000 0.363090 0.477907 -0.112039 237.636013 498.595805 -0.000000 0.284920 0.128356 -0.357513
0.155000 -64.569115 123.054019 -0.000000 0.371122 0.476650 -0.111680 209.177274 378.023874 -0.000000 0.276049 0.130636 -0.357619
0.160000 -48.641881 151.766321 -0.000000 0.378775 0.474670 -0.111147 181.656961 265.405164 -0.000000 0.267117 0.133513 -0.357781
0.165000 -32.204738 183.652309 -0.000000 0.385897 0.471937 -0.110440 156.309325 162.186633 -0.000000 0.258197 0.137096 -0.357842
0.170000 -15.773182 219.097631 -0.000000 0.392718 0.468030 -0.109711 133.937404 68.707108 -0.000000 0.249208 0.141340 -0.357745
0.175000 -0.143635 257.978464 -0.000000 0.399534 0.463785 -0.108981 114.168588 -14.883670 -0.000000 0.240336 0.146371 -0.357822
0.180000 13.921918 299.702847 -0.000000 0.406180 0.458688 -0.108404 96.165324 -88.555595 -0.000000 0.231741 0.152082 -0.357876
0.185000 25.600287 343.234579 -0.000000 0.412716 0.452784 -0.108124 78.921980 -152.011676 -0.000000 0.223714 0.158198 -0.357991
0.190000 34.067982 387.193148 -0.000000 0.418906 0.446268 -0.108094 61.763182 -204.690815 -0.000000 0.216421 0.164728 -0.357916
0.195000 39.081284 429.988096 -0.000000 0.424890 0.439258 -0.107866 44.389958 -246.064088 -0.000000 0.209764 0.171473 -0.357859
0.200000 40.549316 470.154014 -0.000000 0.430461 0.431657 -0.107932 27.130419 -275.819078 -0.000000 0.203780 0.178631 -0.357773
0.205000 39.590259 506.581169 -0.000000 0.436012 0.423301 -0.107804 10.143588 -294.172111 -0.000000 0.197932 0.186106 -0.356077
0.210000 35.998110 538.912742 -0.000000 0.441320 0.414142 -0.107849 -5.374142 -301.813775 -0.000000 0.192753 0.194291 -0.355962
0.215000 29.142840 567.412997 -0.000000 0.446166 0.404453 -0.107699 -17.983541 -299.992514 -0.000000 0.187928 0.202645 -0.355947
0.220000 20.504637 592.677975 -0.000000 0.451105 0.394184 -0.107707 -27.492951 -290.256649 -0.000000 0.183624 0.211616 -0.355899
0.225000 9.223540 615.681689 -0.000000 0.455529 0.383603 -0.107701 -32.705167 -274.465980 -0.000000 0.179935 0.220914 -0.355719
0.230000 -3.450284 637.428784 -0.000000 0.459517 0.372726 -0.107700 -33.862914 -254.512729 -0.000000 0.176680 0.230611 -0.355735
0.235000 -16.940178 659.007005 -0.000000 0.462976 0.361456 -0.107750 -31.238469 -232.270562 -0.000000 0.174046 0.240473 -0.355771
0.240000 -30.407328 681.440047 -0.000000 0.465859 0.350112 -0.107869 -25.478647 -209.444766 -0.000000 0.172065 0.250662 -0.355835
0.245000 -42.478411 705.564655 -0.000000 0.468090 0.338566 -0.107839 -17.524966 -187.496841 -0.000000 0.170565 0.261071 -0.355905
0.250000 -52.620410 731.872659 -0.000000 0.469537 0.327085 -0.107679 -8.191143 -167.616615 -0.000000 0.169785 0.271753 -0.355959
0.255000 -59.511141 760.614279 -0.000000 0.470369 0.315602 -0.107890 1.368082 -150.579027 -0.000000 0.169545 0.282687 -0.356106
0.260000 -63.717015 791.721360 -0.000000 0.470379 0.304237 -0.107914 10.381326 -136.679517 -0.000000 0.170024 0.293521 -0.356044
0.265000 -63.986490 825.218925 -0.000000 0.469786 0.292845 -0.107829 17.900984 -125.756457 -0.000000 0.171175 0.304390 -0.355891
0.270000 -59.842778 861.042709 -0.000000 0.468502 0.281369 -0.108120 23.473905 -117.414996 -0.000000 0.173035 0.315273 -0.355795
0.275000 -51.429749 898.969553 -0.000000 0.466492 0.270022 -0.107980 26.980710 -111.228774 -0.000000 0.175452 0.326228 -0.355717
0.280000 -38.556764 938.635443 -0.000000 0.463713 0.258742 -0.107776 28.378585 -106.830477 -0.000000 0.178538 0.337113 -0.355577
0.285000 -20.966908 979.490363 -0.000000 0.460327 0.247568 -0.107605 27.713180 -103.853598 -0.000000 0.182234 0.348012 -0.355405
0.290000 0.221301 1020.772107 -0.000000 0.456256 0.236797 -0.107437 25.271827 -101.833318 -0.000000 0.186550 0.358782 -0.355183
0.295000 24.672546 1061.609220 -0.000000 0.451490 0.226522 -0.107302 21.304113 -100.237511 -0.000000 0.191475 0.369379 -0.355055
0.300000 52.238547 1100.997938 -0.000000 0.446048 0.216507 -0.107265 16.047877 -98.452280 -0.000000 0.196790 0.379685 -0.354532
0.305000 82.410160 1137.876777 -0.000000 0.440051 0.206948 -0.107132 9.801331 -95.869195 -0.000000 0.202749 0.389732 -0.354232
0.310000 113.584275 1171.308540 -0.000000 0.433516 0.197863 -0.107088 3.016535 -92.023417 -0.000000 0.209119 0.399325 -0.353754
